<?xml version="1.0" encoding="utf-8"?>
<!-- Generator: Adobe Illustrator 27.5.0, SVG Export Plug-In . SVG Version: 6.00 Build 0)  -->
<svg version="1.1" id="Layer_1" xmlns="http://www.w3.org/2000/svg" xmlns:xlink="http://www.w3.org/1999/xlink" x="0px" y="0px"
	 viewBox="0 0 6860 4000" style="enable-background:new 0 0 6860 4000;" xml:space="preserve">
<g>
	
		<linearGradient id="SVGID_1_" gradientUnits="userSpaceOnUse" x1="9117.5342" y1="-1394.983" x2="47.2304" y2="4082.2502" gradientTransform="matrix(0.6549 0 0 -0.6549 0.5975 2621.4456)">
		<stop  offset="0" style="stop-color:#106B60"/>
		<stop  offset="1" style="stop-color:#B0F122"/>
	</linearGradient>
	<polygon style="fill-rule:evenodd;clip-rule:evenodd;fill:url(#SVGID_1_);" points="6860,0 0,0 0,4000 6860,4000 	"/>
	<defs>
		<filter id="Adobe_OpacityMaskFilter" filterUnits="userSpaceOnUse" x="2050.423" y="0.001" width="4809.577" height="2903.649">
			<feColorMatrix  type="matrix" values="1 0 0 0 0  0 1 0 0 0  0 0 1 0 0  0 0 0 1 0"/>
		</filter>
	</defs>
	<mask maskUnits="userSpaceOnUse" x="2050.423" y="0.001" width="4809.577" height="2903.649" id="id16_2_">
		
			<linearGradient id="SVGID_00000065074810351982324250000009011995328010758792_" gradientUnits="userSpaceOnUse" x1="8436.2021" y1="1131.9341" x2="4658.7915" y2="2642.9016" gradientTransform="matrix(0.6549 0 0 -0.6549 0.5975 2621.4456)">
			<stop  offset="0" style="stop-color:#FFFFFF"/>
			<stop  offset="1" style="stop-color:#FFFFFF;stop-opacity:0"/>
		</linearGradient>
		
			<rect x="2050.423" style="fill-rule:evenodd;clip-rule:evenodd;fill:url(#SVGID_00000065074810351982324250000009011995328010758792_);filter:url(#Adobe_OpacityMaskFilter);" width="4809.578" height="2903.649"/>
	</mask>
	<path style="mask:url(#id16_2_);fill-rule:evenodd;clip-rule:evenodd;fill:#ECF955;" d="M2629.832,2903.649
		C3283.966,1205.333,4931.146,0.248,6860,0.248V0.001H2050.423v2707.554C2247.578,2766.749,2438.534,2834.368,2629.832,2903.649z"/>
	<defs>
		
			<filter id="Adobe_OpacityMaskFilter_00000135649814305648620350000002715277023256224669_" filterUnits="userSpaceOnUse" x="0" y="0" width="2029.151" height="3975.617">
			<feColorMatrix  type="matrix" values="1 0 0 0 0  0 1 0 0 0  0 0 1 0 0  0 0 0 1 0"/>
		</filter>
	</defs>
	<mask maskUnits="userSpaceOnUse" x="0" y="0" width="2029.151" height="3975.617" id="id18_2_">
		
			<linearGradient id="SVGID_00000153698168925150122670000005209270562128189106_" gradientUnits="userSpaceOnUse" x1="4465.5249" y1="2638.2947" x2="688.1128" y2="474.8793" gradientTransform="matrix(0.6549 0 0 -0.6549 0.5975 2621.4456)">
			<stop  offset="0" style="stop-color:#FFFFFF"/>
			<stop  offset="1" style="stop-color:#FFFFFF;stop-opacity:0"/>
		</linearGradient>
		
			<rect style="fill-rule:evenodd;clip-rule:evenodd;fill:url(#SVGID_00000153698168925150122670000005209270562128189106_);filter:url(#Adobe_OpacityMaskFilter_00000135649814305648620350000002715277023256224669_);" width="2029.151" height="3975.617"/>
	</mask>
	<path style="mask:url(#id18_2_);fill-rule:evenodd;clip-rule:evenodd;fill:#ECF955;" d="M2029.151,0H0v3975.617
		C1945.788,2667.063,1174.008,1516.987,2029.151,0L2029.151,0z"/>
	<defs>
		
			<filter id="Adobe_OpacityMaskFilter_00000082354579937011769500000004233267956632706963_" filterUnits="userSpaceOnUse" x="2359.342" y="0.248" width="4500.658" height="3999.752">
			<feColorMatrix  type="matrix" values="1 0 0 0 0  0 1 0 0 0  0 0 1 0 0  0 0 0 1 0"/>
		</filter>
	</defs>
	<mask maskUnits="userSpaceOnUse" x="2359.342" y="0.248" width="4500.658" height="3999.752" id="id20_2_">
		
			<linearGradient id="SVGID_00000093142139379099450750000004788671679623835796_" gradientUnits="userSpaceOnUse" x1="4790.8149" y1="4585.8481" x2="7675.3926" y2="-84.4171" gradientTransform="matrix(0.6549 0 0 -0.6549 0.5975 2621.4456)">
			<stop  offset="0" style="stop-color:#FFFFFF"/>
			<stop  offset="1" style="stop-color:#FFFFFF;stop-opacity:0"/>
		</linearGradient>
		
			<rect x="2359.342" y="0.247" style="fill-rule:evenodd;clip-rule:evenodd;fill:url(#SVGID_00000093142139379099450750000004788671679623835796_);filter:url(#Adobe_OpacityMaskFilter_00000082354579937011769500000004233267956632706963_);" width="4500.658" height="3999.751"/>
	</mask>
	<path style="mask:url(#id20_2_);fill-rule:evenodd;clip-rule:evenodd;fill:#005B50;" d="M2359.342,4000h2450.236
		c-84.283-290.194-129.641-596.945-129.641-914.326c0-1424.22,909.929-2635.716,2180.064-3085.425
		C4537.167,0.248,2622.82,1747.917,2359.342,4000L2359.342,4000z"/>
	<defs>
		
			<filter id="Adobe_OpacityMaskFilter_00000107583939374579335310000006265048657652474005_" filterUnits="userSpaceOnUse" x="4679.936" y="0.248" width="2180.064" height="3999.752">
			<feColorMatrix  type="matrix" values="1 0 0 0 0  0 1 0 0 0  0 0 1 0 0  0 0 0 1 0"/>
		</filter>
	</defs>
	<mask maskUnits="userSpaceOnUse" x="4679.936" y="0.248" width="2180.064" height="3999.752" id="id22_2_">
		
			<linearGradient id="SVGID_00000121979393641567165720000005958004719457569470_" gradientUnits="userSpaceOnUse" x1="6614.9761" y1="2340.5005" x2="9808.6025" y2="314.4441" gradientTransform="matrix(0.6549 0 0 -0.6549 0.5975 2621.4456)">
			<stop  offset="0" style="stop-color:#FFFFFF"/>
			<stop  offset="1" style="stop-color:#FFFFFF;stop-opacity:0"/>
		</linearGradient>
		
			<rect x="4679.936" y="0.247" style="fill-rule:evenodd;clip-rule:evenodd;fill:url(#SVGID_00000121979393641567165720000005958004719457569470_);filter:url(#Adobe_OpacityMaskFilter_00000107583939374579335310000006265048657652474005_);" width="2180.064" height="3999.751"/>
	</mask>
	<path style="mask:url(#id22_2_);fill-rule:evenodd;clip-rule:evenodd;fill:#005B50;" d="M4809.577,4000H6860V0.248
		C5589.866,449.957,4679.936,1661.454,4679.936,3085.674C4679.936,3403.054,4725.295,3709.806,4809.577,4000L4809.577,4000z"/>
	<defs>
		
			<filter id="Adobe_OpacityMaskFilter_00000070800043833163661270000011345470143072685716_" filterUnits="userSpaceOnUse" x="0" y="2507.789" width="6860" height="1492.21">
			<feColorMatrix  type="matrix" values="1 0 0 0 0  0 1 0 0 0  0 0 1 0 0  0 0 0 1 0"/>
		</filter>
	</defs>
	<mask maskUnits="userSpaceOnUse" x="0" y="2507.789" width="6860" height="1492.21" id="id24_2_">
		
			<linearGradient id="SVGID_00000074431364914883163160000002482371946085739445_" gradientUnits="userSpaceOnUse" x1="5236.1611" y1="948.7396" x2="5236.1436" y2="-1543.4109" gradientTransform="matrix(0.6549 0 0 -0.6549 0.5975 2621.4456)">
			<stop  offset="0" style="stop-color:#FFFFFF"/>
			<stop  offset="1" style="stop-color:#FFFFFF;stop-opacity:0"/>
		</linearGradient>
		
			<rect y="2507.783" style="fill-rule:evenodd;clip-rule:evenodd;fill:url(#SVGID_00000074431364914883163160000002482371946085739445_);filter:url(#Adobe_OpacityMaskFilter_00000070800043833163661270000011345470143072685716_);" width="6860" height="1492.216"/>
	</mask>
	<path style="mask:url(#id24_2_);fill-rule:evenodd;clip-rule:evenodd;fill:#FEFEFE;" d="M6860,2992.104V4000H4500.659h-176.167
		H2050.423H0v-1426.01c1406.387-233.451,2213.638,200.702,3174.464,523.363C4414.75,3513.864,5636.284,3528.536,6860,2992.104z"/>
</g>
</svg>
